<?xml version="1.0"?><svg width="50" height="50" xmlns="http://www.w3.org/2000/svg">
 <title>search icon red</title>
 <metadata id="metadata12220">image/svg+xmlSergio Luiz Araujo Silvasearchiconsinformaticcomputer</metadata>
 <g>
  <title>Layer 1</title>
  <rect id="svg_1" height="34" width="37" y="13" x="6" stroke-width="9.756173" fill="#ff0000"/>
  <path fill="#ffffff" stroke-width="9.756173" id="path12423" d="m18.354813,21.945496c-2.562531,2.978973 -2.568802,7.859039 -0.006271,10.838074c2.171097,2.524017 5.519196,2.9086 8.04892,1.154236l4.52092,5.110535c0.622208,0.702057 1.603912,0.676117 2.197983,-0.058075c0.594131,-0.734222 0.578568,-1.889496 -0.043701,-2.591522l-4.452164,-5.016205c1.561035,-2.949707 1.244049,-6.88736 -0.949142,-9.437042c-2.562531,-2.979034 -6.754074,-2.979034 -9.316544,0l0,0zm1.879501,2.185028c1.5457,-1.796967 4.01178,-1.796967 5.557465,0c1.5457,1.796936 1.5457,4.663818 0,6.460754c-1.545685,1.796936 -4.011765,1.796936 -5.557465,0c-1.5457,-1.796936 -1.5457,-4.663818 0,-6.460754z"/>
 </g>
</svg>